<svg width="512" height="512" viewBox="0 0 512 512" fill="none" xmlns="http://www.w3.org/2000/svg">
    <path fill-rule="evenodd" clip-rule="evenodd"
        d="M40.3327 40.6673C46.7764 34.2236 57.2236 34.2236 63.6673 40.6673L470.333 447.333C476.776 453.776 476.776 464.224 470.333 470.667C463.889 477.111 453.442 477.111 446.998 470.667L40.3327 64.0018C33.8891 57.5581 33.8891 47.1109 40.3327 40.6673Z"
        fill="white" />
    <path fill-rule="evenodd" clip-rule="evenodd"
        d="M470.667 40.6673C464.224 34.2236 453.776 34.2236 447.333 40.6673L40.6672 447.333C34.2236 453.776 34.2236 464.224 40.6672 470.667C47.1109 477.111 57.5581 477.111 64.0018 470.667L470.667 64.0018C477.111 57.5581 477.111 47.1109 470.667 40.6673Z"
        fill="white" />
</svg>