<svg width="512" height="512" viewBox="0 0 512 512" fill="none" xmlns="http://www.w3.org/2000/svg">
    <path
        d="M61.0266 11.4176C53.8857 18.156 46.9198 25.0746 39.9376 31.975C37.704 34.177 35.4639 36.3726 33.2173 38.5615C29.9439 41.7515 26.6913 44.9613 23.4423 48.1759C22.4477 49.1379 21.4531 50.1 20.4284 51.0912C5.5283 65.9691 -0.0316368 83.6903 0.000135311 104.362C0.302613 123.976 5.24021 142.672 11.2305 161.245C11.5898 162.374 11.9491 163.504 12.3193 164.668C25.437 205.2 46.3874 243.568 70.7429 278.448C71.2589 279.19 71.775 279.932 72.3067 280.696C83.9796 297.404 96.4474 313.623 109.608 329.196C110.402 330.14 110.402 330.14 111.213 331.104C127.931 350.931 145.618 370.808 165.505 387.562C168.524 390.138 171.433 392.821 174.358 395.501C180.927 401.44 187.656 407.102 194.626 412.568C195.473 413.237 196.321 413.907 197.194 414.596C257.905 462.324 343.111 517.154 424.174 510.439C440.445 508.084 454.92 498.242 465.292 485.848C469.443 481.081 473.869 476.65 478.382 472.227C479.115 471.507 479.848 470.788 480.603 470.046C483.667 467.042 486.734 464.042 489.813 461.053C492.084 458.845 494.342 456.626 496.6 454.405C497.286 453.745 497.972 453.085 498.678 452.405C505.471 445.691 511.171 438.385 512 428.653C511.55 411.04 489.669 395.333 477.912 383.536C477.203 382.824 476.493 382.111 475.762 381.377C472.019 377.622 468.272 373.87 464.522 370.122C461.448 367.047 458.383 363.964 455.325 360.873C451.59 357.098 447.841 353.338 444.081 349.589C442.665 348.172 441.254 346.751 439.85 345.324C427.669 332.353 427.669 332.353 411.422 326.589C399.406 327.11 391.849 335.525 383.994 343.611C381.863 345.765 379.732 347.918 377.601 350.072C374.28 353.452 370.963 356.835 367.649 360.222C364.429 363.506 361.194 366.774 357.958 370.042C356.984 371.046 356.011 372.051 355.008 373.086C347.925 380.223 340.302 386.795 330.384 389.45C317.922 389.484 308.537 384.554 297.862 378.736C296.465 377.989 296.465 377.989 295.041 377.227C269.281 363.347 245.788 345.539 224.268 325.807C221.81 323.577 219.316 321.412 216.796 319.251C211.384 314.551 206.295 309.568 201.23 304.502C200.36 303.641 199.49 302.781 198.594 301.894C192.972 296.29 187.665 290.495 182.48 284.49C181.356 283.223 180.23 281.958 179.102 280.695C121.549 215.541 121.549 215.541 121.108 180.337C122.793 171.501 127.792 165.399 134.203 159.357C135.177 158.405 135.177 158.405 136.171 157.434C139.694 154.025 143.319 150.768 147.041 147.576C152.875 142.535 158.342 137.15 163.807 131.717C164.803 130.742 165.798 129.766 166.824 128.76C179.865 116.282 179.865 116.282 184.91 99.6223C183.177 83.833 164.29 70.437 153.583 59.7537C152.798 58.9695 152.013 58.1853 151.205 57.3773C147.065 53.2411 142.922 49.1083 138.776 44.9785C134.509 40.7262 130.253 36.4629 125.999 32.1969C122.707 28.8997 119.408 25.6107 116.106 22.3238C114.532 20.7549 112.962 19.183 111.395 17.608C109.207 15.4109 107.008 13.2256 104.806 11.0427C104.168 10.3968 103.53 9.75093 102.873 9.08547C88.1859 -5.36285 74.5011 -1.07054 61.0266 11.4176Z"
        fill="#343434" />
</svg>