<svg width="512" height="512" viewBox="0 0 512 512" fill="none" xmlns="http://www.w3.org/2000/svg">
    <path
        d="M44.5 86.0001C54 71.5001 98.5 40.0001 105 50.0001C111.5 60.0001 15 122 15 137.5C15 153 167.5 21.5002 178 32.0001C188.5 42.5001 9 176.5 9 195.5C9 214.5 199.5 33.0002 218.5 59.0001C237.5 85 10.5 222 22 245C33.5 268 231.5 92 243 101C254.5 110 37 267.5 49.5 284.5C62 301.5 379.5 22.5001 386.5 32.0001C393.5 41.5001 58.5 304 73 320C87.5 336 447 -0.000148773 461.5 36C476 72.0001 94.5 338.5 105 351C115.5 363.5 471.5 62.0456 497 86.0001C522.5 109.955 117.5 359 136.5 380C155.5 401 493 123 501.5 148.5C510 174 162.5 400.5 173 411C183.5 421.5 502.5 180.5 483.5 218.5C464.5 256.5 200.5 428 207.5 436.5C214.5 445 451 257 451 283C451 309 223.5 437.5 231 446C238.5 454.5 375 366.5 395.5 343.5"
        stroke="#343434" stroke-width="16" stroke-linecap="round" stroke-linejoin="round" />
</svg>